<?xml version="1.0" encoding="UTF-8" standalone="no"?>
<svg width="31px" height="31px" viewBox="0 0 31 31" version="1.1" xmlns="http://www.w3.org/2000/svg" xmlns:xlink="http://www.w3.org/1999/xlink">
    <!-- Generator: Sketch 40 (33762) - http://www.bohemiancoding.com/sketch -->
    <title>Slice 1</title>
    <desc>Created with Sketch.</desc>
    <defs></defs>
    <g id="Page-1" stroke="none" stroke-width="1" fill="none" fill-rule="evenodd">
        <g id="arrow" fill="#FFFFFF">
            <g id="Group">
                <g id="Shape">
                    <path d="M15.5,0 C6.95547,0 0,6.9502 0,15.49473 C0,24.04422 6.95547,31 15.5,31 C24.04453,31 31,24.04422 31,15.49473 C31,6.9502 24.04453,0 15.5,0 L15.5,0 L15.5,0 Z M15.5,28.18024 C8.50702,28.18024 2.81976,22.49267 2.81976,15.49473 C2.81976,8.50175 8.50702,2.81976 15.5,2.81976 C22.49298,2.81976 28.18024,8.50175 28.18024,15.49473 C28.18024,22.49298 22.49298,28.18024 15.5,28.18024 L15.5,28.18024 L15.5,28.18024 Z"></path>
                    <path d="M15.8577165,21.8616714 C16.3344921,22.3349984 17.1077572,22.3349984 17.5838919,21.8616714 C18.0606675,21.3885565 18.0606675,20.6205404 17.5838919,20.1470012 L12.8614637,15.5 L17.5841056,10.8531579 C18.0608811,10.380043 18.0608811,9.61181479 17.5841056,9.13848773 C17.3459314,8.90193029 17.0332076,8.78333333 16.720911,8.78333333 C16.4086144,8.78333333 16.0958907,8.90193029 15.8577165,9.13848773 L10.3160547,14.6427445 C9.83906546,15.1160715 9.83906546,15.8838754 10.3160547,16.3574146 L15.8577165,21.8616714 L15.8577165,21.8616714 Z"></path>
                </g>
            </g>
        </g>
    </g>
</svg>