<?xml version="1.0" encoding="utf-8"?>
<!-- Generator: Adobe Illustrator 18.0.0, SVG Export Plug-In . SVG Version: 6.00 Build 0)  -->
<!DOCTYPE svg PUBLIC "-//W3C//DTD SVG 1.1//EN" "http://www.w3.org/Graphics/SVG/1.1/DTD/svg11.dtd">
<svg version="1.1" id="Layer_1" xmlns="http://www.w3.org/2000/svg" xmlns:xlink="http://www.w3.org/1999/xlink" x="0px" y="0px"
	 viewBox="0 0 31 31" enable-background="new 0 0 31 31" xml:space="preserve">
<title>arrow</title>
<desc>Created with Sketch.</desc>
<g id="Page-1">
	
		<g id="arrow" transform="translate(15.500000, 15.500000) rotate(-180.000000) translate(-15.500000, -15.500000) translate(0.000000, 0.000000)">
		<g id="Group">
			<g id="Shape">
				<path fill="#FFFFFF" d="M15.5,0C7,0,0,7,0,15.5C0,24,7,31,15.5,31S31,24,31,15.5C31,7,24,0,15.5,0L15.5,0L15.5,0z M15.5,28.2
					c-7,0-12.7-5.7-12.7-12.7c0-7,5.7-12.7,12.7-12.7s12.7,5.7,12.7,12.7C28.2,22.5,22.5,28.2,15.5,28.2L15.5,28.2L15.5,28.2z"/>
				<path fill="#FFFFFF" d="M9.3,10.9l4.7,4.6c0,0,0,0.1,0,0.1l-4.7,4.6c-0.5,0.5-0.5,1.2,0,1.7c0.5,0.5,1.2,0.5,1.7,0l4.4-4.4
					l4.4,4.4c0.5,0.5,1.2,0.5,1.7,0c0.5-0.5,0.5-1.2,0-1.7l-4.7-4.6c0,0,0-0.1,0-0.1l4.7-4.6c0.5-0.5,0.5-1.2,0-1.7
					c-0.2-0.2-0.6-0.4-0.9-0.4c-0.3,0-0.6,0.1-0.9,0.4l-4.4,4.4L11,9.1c-0.2-0.2-0.6-0.4-0.9-0.4c-0.3,0-0.6,0.1-0.9,0.4
					C8.8,9.6,8.8,10.4,9.3,10.9z"/>
			</g>
		</g>
	</g>
</g>
</svg>
