<?xml version="1.0" encoding="utf-8"?>
<!-- Generator: Adobe Illustrator 18.0.0, SVG Export Plug-In . SVG Version: 6.00 Build 0)  -->
<!DOCTYPE svg PUBLIC "-//W3C//DTD SVG 1.1//EN" "http://www.w3.org/Graphics/SVG/1.1/DTD/svg11.dtd">
<svg version="1.1" xmlns="http://www.w3.org/2000/svg" xmlns:xlink="http://www.w3.org/1999/xlink" x="0px" y="0px"
	 viewBox="0 0 311 470" enable-background="new 0 0 311 470" xml:space="preserve">
<g id="Layer_3">
</g>
<g id="Layer_2" display="none">
</g>
<g id="Layer_1">
	<g>
		<defs>
			<path id="SVGID_1_" d="M2,61.048c0-9.368,7.601-16.963,16.968-16.963h272.025c9.371,0,16.968,7.592,16.968,16.963
				c0,9.368-7.601,16.963-16.968,16.963H18.968C9.597,78.011,2,70.418,2,61.048z"/>
		</defs>
		<clipPath id="SVGID_2_">
			<use xlink:href="#SVGID_1_"  overflow="visible"/>
		</clipPath>
		<path clip-path="url(#SVGID_2_)" fill="none" stroke="#FFFFFF" stroke-width="14" stroke-miterlimit="10" d="M2,61.048
			c0-9.368,7.601-16.963,16.968-16.963h272.025c9.371,0,16.968,7.592,16.968,16.963c0,9.368-7.601,16.963-16.968,16.963H18.968
			C9.597,78.011,2,70.418,2,61.048z"/>
	</g>
	<path fill="none" stroke="#FFFFFF" stroke-width="7" stroke-linecap="square" stroke-miterlimit="10" d="M52.346,457.019"/>
	<path fill="none" stroke="#FFFFFF" stroke-width="7" stroke-linecap="square" stroke-miterlimit="10" d="M20.527,77.481"/>
	
		<line fill="none" stroke="#FFFFFF" stroke-width="7" stroke-linecap="square" stroke-miterlimit="10" x1="291.551" y1="79.601" x2="258.731" y2="462.32"/>
	
		<line fill="none" stroke="#FFFFFF" stroke-width="7" stroke-linecap="square" stroke-miterlimit="10" x1="257.202" y1="462.32" x2="52.8" y2="462.32"/>
	<path fill="none" stroke="#FFFFFF" stroke-width="7" stroke-linecap="square" stroke-miterlimit="10" d="M266.671,322.908H44.563
		c-4.418,0,4.07,0,4.07,0"/>
	<path fill="none" stroke="#FFFFFF" stroke-width="7" stroke-linecap="square" stroke-miterlimit="10" d="M262.063,389.698H192.96
		c-1.375,0,1.266,0,1.266,0"/>
	<path fill="none" stroke="#FFFFFF" stroke-width="7" stroke-linecap="square" stroke-miterlimit="10" d="M275.141,241.276h-82.106
		c-1.633,0,1.505,0,1.505,0"/>
	<path fill="none" stroke="#FFFFFF" stroke-width="7" stroke-linecap="square" stroke-miterlimit="10" d="M282.552,119.3h-89.475
		c-1.78,0,1.64,0,1.64,0"/>
	<path fill="none" stroke="#FFFFFF" stroke-width="7" stroke-linecap="square" stroke-miterlimit="10" d="M282.552,170.245H30.969
		c-5.005,0,4.611,0,4.611,0"/>
	
		<line fill="none" stroke="#FFFFFF" stroke-width="7" stroke-linecap="square" stroke-miterlimit="10" x1="17.351" y1="46.736" x2="27.938" y2="8.57"/>
	
		<line fill="none" stroke="#FFFFFF" stroke-width="7" stroke-linecap="square" stroke-miterlimit="10" x1="293.668" y1="46.736" x2="283.081" y2="8.57"/>
	<line fill="none" stroke="#FFFFFF" stroke-linecap="square" stroke-miterlimit="10" x1="34.29" y1="6.45" x2="35.878" y2="8.04"/>
	
		<line fill="none" stroke="#FFFFFF" stroke-width="7" stroke-linecap="square" stroke-miterlimit="10" x1="28.996" y1="7.51" x2="282.022" y2="7.51"/>
	<g>
		<defs>
			<path id="SVGID_3_" d="M175.601,127.217c0,0.784,0.265,1.436,0.796,1.954c0.53,0.519,1.153,0.778,1.868,0.778
				s1.332-0.257,1.851-0.77c0.519-0.513,0.778-1.167,0.778-1.963c0-0.726-0.257-1.369-0.77-1.928
				c-0.513-0.559-1.133-0.839-1.859-0.839c-0.738,0-1.366,0.277-1.885,0.83C175.861,125.833,175.601,126.479,175.601,127.217z
				 M178.265,121.613c0.98,0,1.905,0.254,2.776,0.761c0.871,0.507,1.551,1.191,2.041,2.05c0.49,0.859,0.735,1.79,0.735,2.793
				c0,0.992-0.248,1.914-0.744,2.767c-0.496,0.853-1.173,1.531-2.032,2.032c-0.859,0.502-1.784,0.752-2.776,0.752
				c-1.003,0-1.937-0.245-2.802-0.735c-0.865-0.49-1.548-1.167-2.05-2.032c-0.501-0.865-0.752-1.793-0.752-2.785
				s0.254-1.923,0.761-2.793c0.507-0.87,1.199-1.557,2.075-2.058C176.374,121.864,177.296,121.613,178.265,121.613z
				 M163.633,113.571c0,0.749,0.259,1.392,0.778,1.928c0.519,0.536,1.147,0.804,1.885,0.804c0.726,0,1.343-0.262,1.851-0.787
				c0.507-0.525,0.761-1.173,0.761-1.946c0-0.761-0.251-1.41-0.752-1.946c-0.502-0.536-1.121-0.804-1.859-0.804
				c-0.726,0-1.352,0.271-1.877,0.813C163.895,112.176,163.633,112.822,163.633,113.571z M181.949,107.984l-16.465,24.784h-2.906
				l16.465-24.784H181.949z M166.296,107.984c0.98,0,1.9,0.248,2.759,0.744c0.859,0.496,1.539,1.179,2.041,2.05
				c0.502,0.871,0.752,1.802,0.752,2.793c0,0.992-0.248,1.917-0.744,2.776c-0.496,0.859-1.176,1.539-2.041,2.041
				c-0.865,0.502-1.787,0.752-2.767,0.752c-1.003,0-1.94-0.248-2.81-0.744c-0.871-0.496-1.554-1.176-2.049-2.041
				c-0.496-0.865-0.744-1.793-0.744-2.785c0-1.003,0.254-1.94,0.761-2.811c0.507-0.87,1.196-1.551,2.067-2.041
				C164.391,108.23,165.316,107.984,166.296,107.984z M145.371,120.524c0,5.523,1.182,8.285,3.546,8.285
				c2.306,0,3.459-2.906,3.459-8.717c0-5.431-1.165-8.146-3.494-8.146C146.541,111.945,145.371,114.805,145.371,120.524z
				 M148.917,107.984c2.444,0,4.384,1.101,5.82,3.304c1.436,2.202,2.153,5.212,2.153,9.028c0,3.851-0.709,6.889-2.127,9.115
				c-1.418,2.225-3.355,3.338-5.811,3.338c-2.491,0-4.459-1.104-5.906-3.312c-1.447-2.208-2.171-5.232-2.171-9.071
				c0-3.828,0.721-6.852,2.162-9.072C144.477,109.094,146.438,107.984,148.917,107.984z M125.051,120.524
				c0,5.523,1.182,8.285,3.546,8.285c2.306,0,3.459-2.906,3.459-8.717c0-5.431-1.164-8.146-3.494-8.146
				C126.221,111.945,125.051,114.805,125.051,120.524z M128.597,107.984c2.444,0,4.384,1.101,5.82,3.304
				c1.436,2.202,2.153,5.212,2.153,9.028c0,3.851-0.709,6.889-2.127,9.115c-1.418,2.225-3.355,3.338-5.811,3.338
				c-2.491,0-4.459-1.104-5.906-3.312c-1.447-2.208-2.171-5.232-2.171-9.071c0-3.828,0.721-6.852,2.162-9.072
				C124.158,109.094,126.118,107.984,128.597,107.984z M110.439,108.296v24.162h-4.428v-24.162H110.439z"/>
		</defs>
		<clipPath id="SVGID_4_">
			<use xlink:href="#SVGID_3_"  overflow="visible"/>
		</clipPath>
		<rect x="101.091" y="103.065" clip-path="url(#SVGID_4_)" fill="#FFFFFF" width="87.645" height="34.624"/>
	</g>
	<g>
		<defs>
			<path id="SVGID_5_" d="M168.651,247.891c0,0.784,0.265,1.436,0.796,1.954c0.53,0.519,1.153,0.778,1.868,0.778
				c0.715,0,1.332-0.257,1.851-0.77c0.519-0.513,0.778-1.167,0.778-1.963c0-0.726-0.257-1.369-0.77-1.928
				c-0.513-0.559-1.133-0.839-1.859-0.839c-0.738,0-1.366,0.277-1.885,0.83C168.911,246.507,168.651,247.153,168.651,247.891z
				 M171.315,242.287c0.98,0,1.905,0.254,2.776,0.761c0.871,0.507,1.551,1.191,2.041,2.05c0.49,0.859,0.735,1.79,0.735,2.793
				c0,0.992-0.248,1.914-0.744,2.767c-0.496,0.853-1.173,1.531-2.032,2.032c-0.859,0.502-1.784,0.752-2.776,0.752
				c-1.003,0-1.937-0.245-2.802-0.735c-0.865-0.49-1.548-1.167-2.05-2.032c-0.502-0.865-0.752-1.793-0.752-2.785
				s0.254-1.923,0.761-2.793c0.507-0.871,1.199-1.557,2.075-2.058C169.424,242.538,170.346,242.287,171.315,242.287z
				 M156.683,234.245c0,0.749,0.259,1.392,0.778,1.928c0.519,0.536,1.147,0.804,1.885,0.804c0.726,0,1.343-0.262,1.851-0.787
				c0.507-0.525,0.761-1.173,0.761-1.946c0-0.761-0.251-1.41-0.752-1.946c-0.501-0.536-1.121-0.804-1.859-0.804
				c-0.726,0-1.352,0.271-1.877,0.813C156.945,232.85,156.683,233.495,156.683,234.245z M174.999,228.658l-16.465,24.784h-2.906
				l16.465-24.784H174.999z M159.346,228.658c0.98,0,1.9,0.248,2.759,0.744c0.859,0.496,1.539,1.179,2.041,2.05
				c0.502,0.871,0.752,1.802,0.752,2.793c0,0.992-0.248,1.917-0.744,2.776c-0.496,0.859-1.176,1.539-2.041,2.041
				s-1.787,0.752-2.767,0.752c-1.003,0-1.94-0.248-2.811-0.744c-0.87-0.496-1.554-1.176-2.049-2.041
				c-0.496-0.865-0.744-1.793-0.744-2.785c0-1.003,0.254-1.94,0.761-2.811c0.507-0.87,1.196-1.551,2.067-2.041
				C157.441,228.903,158.366,228.658,159.346,228.658z M138.421,241.197c0,5.523,1.182,8.285,3.546,8.285
				c2.306,0,3.459-2.906,3.459-8.717c0-5.431-1.165-8.146-3.494-8.146C139.591,232.619,138.421,235.478,138.421,241.197z
				 M141.967,228.658c2.444,0,4.384,1.101,5.82,3.304c1.436,2.202,2.153,5.212,2.153,9.028c0,3.851-0.709,6.889-2.127,9.115
				c-1.418,2.225-3.355,3.338-5.811,3.338c-2.491,0-4.459-1.104-5.906-3.312c-1.447-2.208-2.171-5.232-2.171-9.071
				c0-3.828,0.721-6.852,2.162-9.072C137.528,229.768,139.488,228.658,141.967,228.658z M118.309,245.625
				c0,1.118,0.314,2.041,0.943,2.767c0.628,0.726,1.438,1.09,2.43,1.09c0.969,0,1.753-0.343,2.352-1.029
				c0.6-0.686,0.899-1.594,0.899-2.724c0-1.061-0.308-1.94-0.925-2.638c-0.617-0.698-1.415-1.046-2.395-1.046
				c-0.946,0-1.732,0.343-2.361,1.029C118.623,243.76,118.309,244.61,118.309,245.625z M127.562,228.658
				c-1.291,1.072-2.718,2.658-4.281,4.756c-1.562,2.099-2.678,3.938-3.347,5.517c0.899-0.381,1.822-0.571,2.767-0.571
				c1.245,0,2.378,0.314,3.399,0.943c1.02,0.628,1.813,1.499,2.378,2.612c0.565,1.113,0.847,2.349,0.847,3.71
				c0,1.441-0.334,2.761-1.003,3.961c-0.669,1.199-1.591,2.142-2.767,2.828c-1.176,0.686-2.456,1.029-3.84,1.029
				c-2.352,0-4.258-0.793-5.716-2.378c-1.459-1.585-2.188-3.646-2.188-6.183c0-2.525,0.758-5.229,2.274-8.112
				c1.516-2.883,3.583-5.586,6.2-8.112H127.562z"/>
		</defs>
		<clipPath id="SVGID_6_">
			<use xlink:href="#SVGID_5_"  overflow="visible"/>
		</clipPath>
		<rect x="108.892" y="223.739" clip-path="url(#SVGID_6_)" fill="#FFFFFF" width="72.894" height="34.624"/>
	</g>
	<g>
		<defs>
			<path id="SVGID_7_" d="M167.667,398.02c0,0.784,0.265,1.436,0.796,1.954c0.53,0.519,1.153,0.778,1.868,0.778
				c0.715,0,1.332-0.257,1.851-0.77c0.519-0.513,0.778-1.167,0.778-1.963c0-0.726-0.257-1.369-0.77-1.928
				c-0.513-0.559-1.133-0.839-1.859-0.839c-0.738,0-1.366,0.277-1.885,0.83C167.927,396.637,167.667,397.282,167.667,398.02z
				 M170.331,392.417c0.98,0,1.905,0.254,2.776,0.761c0.871,0.507,1.551,1.19,2.041,2.049c0.49,0.859,0.735,1.79,0.735,2.793
				c0,0.992-0.248,1.914-0.744,2.767c-0.496,0.853-1.173,1.531-2.032,2.032c-0.859,0.502-1.784,0.752-2.776,0.752
				c-1.003,0-1.937-0.245-2.802-0.735c-0.865-0.49-1.548-1.167-2.05-2.032c-0.502-0.865-0.752-1.793-0.752-2.785
				s0.254-1.923,0.761-2.793c0.507-0.871,1.199-1.557,2.075-2.058C168.44,392.667,169.362,392.417,170.331,392.417z
				 M155.699,384.374c0,0.749,0.259,1.392,0.778,1.928c0.519,0.536,1.147,0.804,1.885,0.804c0.726,0,1.343-0.262,1.851-0.787
				c0.507-0.525,0.761-1.173,0.761-1.946c0-0.761-0.251-1.41-0.752-1.946c-0.502-0.536-1.121-0.804-1.859-0.804
				c-0.726,0-1.352,0.271-1.877,0.813C155.961,382.979,155.699,383.625,155.699,384.374z M174.015,378.788l-16.465,24.784h-2.906
				l16.465-24.784H174.015z M158.363,378.788c0.98,0,1.9,0.248,2.759,0.744c0.859,0.496,1.539,1.179,2.041,2.05
				s0.752,1.802,0.752,2.793c0,0.992-0.248,1.917-0.744,2.776c-0.496,0.859-1.176,1.539-2.041,2.041s-1.787,0.752-2.767,0.752
				c-1.003,0-1.94-0.248-2.811-0.744c-0.87-0.496-1.554-1.176-2.049-2.041c-0.496-0.865-0.744-1.793-0.744-2.785
				c0-1.003,0.254-1.94,0.761-2.811c0.507-0.871,1.196-1.551,2.067-2.041C156.457,379.033,157.382,378.788,158.363,378.788z
				 M137.437,391.327c0,5.523,1.182,8.285,3.546,8.285c2.306,0,3.459-2.906,3.459-8.717c0-5.431-1.165-8.146-3.494-8.146
				C138.608,382.748,137.437,385.608,137.437,391.327z M140.983,378.788c2.444,0,4.384,1.101,5.82,3.303
				c1.436,2.202,2.153,5.212,2.153,9.028c0,3.851-0.709,6.889-2.127,9.115c-1.418,2.225-3.355,3.338-5.811,3.338
				c-2.491,0-4.459-1.104-5.906-3.312c-1.447-2.208-2.171-5.232-2.171-9.072c0-3.828,0.721-6.852,2.162-9.071
				C136.544,379.898,138.504,378.788,140.983,378.788z M119.418,378.788c2.295,0,4.119,0.654,5.474,1.963
				c1.355,1.309,2.032,3.053,2.032,5.232c0,1.66-0.504,3.459-1.513,5.396s-2.782,4.503-5.318,7.697h8.285v4.185h-15.652v-0.502
				c1.822-2.248,3.387-4.269,4.696-6.062c1.309-1.793,2.32-3.28,3.035-4.462s1.222-2.188,1.522-3.018
				c0.3-0.83,0.45-1.689,0.45-2.577c0-1.107-0.355-2.038-1.064-2.793c-0.709-0.755-1.571-1.133-2.586-1.133
				c-1.822,0-3.713,1.038-5.673,3.113v-4.739C115.169,379.555,117.273,378.788,119.418,378.788z"/>
		</defs>
		<clipPath id="SVGID_8_">
			<use xlink:href="#SVGID_7_"  overflow="visible"/>
		</clipPath>
		<rect x="107.805" y="373.868" clip-path="url(#SVGID_8_)" fill="#FFFFFF" width="72.998" height="34.624"/>
	</g>
	
		<line fill="none" stroke="#FFFFFF" stroke-width="7" stroke-linecap="square" stroke-miterlimit="10" x1="20.622" y1="79.601" x2="53.442" y2="462.32"/>
</g>
</svg>
