<?xml version="1.0" encoding="utf-8"?>
<!-- Generator: Adobe Illustrator 18.0.0, SVG Export Plug-In . SVG Version: 6.00 Build 0)  -->
<!DOCTYPE svg PUBLIC "-//W3C//DTD SVG 1.1//EN" "http://www.w3.org/Graphics/SVG/1.1/DTD/svg11.dtd">
<svg version="1.1" id="Layer_1" xmlns="http://www.w3.org/2000/svg" xmlns:xlink="http://www.w3.org/1999/xlink" x="0px" y="0px"
	 viewBox="0 0 420 648" enable-background="new 0 0 420 648" xml:space="preserve">
<rect x="-271.1" y="63" transform="matrix(0.8791 0.4766 -0.4766 0.8791 177.4311 56.4764)" fill="none" width="497" height="630"/>
<g enable-background="new    ">
	<path d="M103.9,322.2c5.4-3.4,11.1-3.5,17.2-0.2c1.8,1,4.5,2.8,7.9,5.5c3.5,2.7,6,4.4,7.5,5.2c4.9,7,11.9,19.6,21.2,38
		c8.7,16.5,16.4,28.9,22.9,37.1c14.1-24.6,33.1-62.5,57-113.8c23.9-51.3,43-89.1,57.4-113.5c6.4-7.5,15.4-8.1,26.9-1.9
		c6.1,3.3,10,8,11.8,14.1c-8.6,13-17.2,27.3-25.6,42.8c-12.2,22.5-29.8,60.4-52.8,113.6c-21.9,49.9-40.5,88-55.6,114.5
		c-0.5,0.1-5.4,2.4-14.8,6.7c-6.6,3.5-12,4.1-16.3,1.8c-1.8-1-3.4-2.4-4.7-4.3c-12-15.6-24.2-36.2-36.6-61.9
		c-21.3-43.9-32.2-66.2-32.7-66.9C93.6,332.6,96.6,327,103.9,322.2z"/>
</g>
</svg>
